<?xml version="1.0" standalone="no"?>
<!DOCTYPE svg PUBLIC "-//W3C//DTD SVG 20010904//EN"
 "http://www.w3.org/TR/2001/REC-SVG-20010904/DTD/svg10.dtd">
<svg version="1.0" xmlns="http://www.w3.org/2000/svg"
 width="267.000000pt" height="188.000000pt" viewBox="0 0 267.000000 188.000000"
 preserveAspectRatio="xMidYMid meet">
<metadata>
Created by potrace 1.16, written by Peter Selinger 2001-2019
</metadata>
<g transform="translate(0.000000,188.000000) scale(0.100000,-0.100000)"
fill="#000000" stroke="none">
<path d="M850 1751 c-88 -18 -110 -63 -110 -220 l0 -109 33 -4 c66 -7 65 -9
59 113 -5 122 5 149 58 149 31 0 42 22 29 58 -9 23 -13 24 -69 13z"/>
<path d="M1029 1740 c-30 -16 -70 -59 -75 -80 0 -3 -4 -22 -9 -43 -23 -112 90
-221 210 -203 25 4 43 11 40 17 -4 5 -1 9 6 9 23 0 72 81 82 137 12 62 -28
134 -95 169 -38 20 -116 17 -159 -6z m130 -75 c92 -47 15 -183 -82 -146 -37
14 -60 62 -47 97 23 59 73 78 129 49z"/>
<path d="M1406 1737 c-22 -12 -48 -34 -59 -49 -25 -33 -34 -117 -17 -158 28
-67 136 -131 197 -115 35 8 98 70 122 118 28 56 14 70 -71 71 l-63 1 -3 -32
c-2 -25 1 -33 12 -33 27 0 18 -18 -12 -25 -40 -8 -78 9 -97 45 -39 75 45 146
124 107 28 -14 34 -14 65 3 l35 17 -27 25 c-40 38 -66 48 -119 48 -31 0 -62
-8 -87 -23z"/>
<path d="M1690 1590 l0 -170 24 -6 c13 -3 34 -4 46 -2 22 3 22 5 22 156 -1 83
-1 161 -1 172 -1 17 -8 20 -46 20 l-45 0 0 -170z"/>
<path d="M736 659 c-9 -597 -18 -549 98 -549 45 0 66 4 57 9 -26 16 145 23
522 19 l367 -3 0 518 -1 517 -518 0 -518 0 -7 -511z m724 261 l0 -90 -66 0
c-58 0 -69 -3 -93 -28 l-28 -28 -8 -242 -7 -242 -93 0 c-52 0 -95 3 -97 8 -2
4 -1 120 2 257 5 246 6 251 32 300 58 110 136 154 271 155 l87 0 0 -90z"/>
</g>
</svg>
