<?xml version="1.0" standalone="no"?>
<!DOCTYPE svg PUBLIC "-//W3C//DTD SVG 20010904//EN"
 "http://www.w3.org/TR/2001/REC-SVG-20010904/DTD/svg10.dtd">
<svg version="1.0" xmlns="http://www.w3.org/2000/svg"
 width="200.000000pt" height="200.000000pt" viewBox="0 0 200.000000 200.000000"
 preserveAspectRatio="xMidYMid meet">

<g transform="translate(0.000000,200.000000) scale(0.100000,-0.100000)"
fill="#000000" stroke="none">
<path d="M782 1210 c-19 -4 -49 -23 -68 -41 -118 -115 27 -295 175 -217 152
79 62 296 -107 258z m91 -88 c12 -11 17 -27 15 -50 -7 -77 -102 -96 -135 -27
-15 31 -15 36 1 60 30 46 78 52 119 17z"/>
<path d="M1115 1211 c-65 -16 -105 -61 -113 -127 -6 -55 28 -112 81 -137 84
-40 184 4 212 92 10 31 -7 41 -72 41 -49 0 -53 -2 -53 -24 0 -15 7 -26 18 -29
14 -3 11 -6 -11 -17 -24 -12 -32 -11 -61 3 -41 19 -54 58 -31 94 24 36 60 46
100 27 31 -14 35 -14 60 2 l26 17 -22 23 c-19 20 -31 25 -89 38 -8 2 -28 1
-45 -3z"/>
<path d="M575 1201 c-11 -5 -31 -21 -45 -36 -23 -25 -25 -34 -25 -128 l0 -102
38 -3 37 -3 0 93 c0 97 7 118 43 118 15 0 18 6 15 33 -3 34 -25 44 -63 28z"/>
<path d="M1531 1174 c0 -11 3 -14 6 -6 3 7 2 16 -1 19 -3 4 -6 -2 -5 -13z"/>
</g>
</svg>
