<?xml version="1.0" standalone="no"?>
<!DOCTYPE svg PUBLIC "-//W3C//DTD SVG 20010904//EN"
 "http://www.w3.org/TR/2001/REC-SVG-20010904/DTD/svg10.dtd">
<svg version="1.0" xmlns="http://www.w3.org/2000/svg"
 width="490.000000pt" height="103.000000pt" viewBox="0 0 490.000000 103.000000"
 preserveAspectRatio="xMidYMid meet">

<g transform="translate(0.000000,103.000000) scale(0.100000,-0.100000)"
fill="#000000" stroke="none">
<path d="M116 883 c10 -16 32 -53 49 -83 17 -30 73 -125 123 -212 l92 -156 0
-161 0 -161 65 0 65 0 0 160 c0 178 -4 164 80 305 25 44 79 135 118 202 40 66
72 124 72 127 0 3 -28 6 -62 6 l-63 0 -93 -163 c-102 -177 -122 -207 -128
-191 -3 5 -50 87 -105 182 l-101 172 -65 0 -65 0 18 -27z"/>
<path d="M1013 843 c-27 -89 -221 -697 -229 -717 -5 -14 4 -16 60 -16 l65 0
16 57 c31 112 14 103 180 103 166 0 149 9 180 -102 l16 -58 65 0 c35 0 64 1
64 3 0 1 -29 94 -66 207 -36 113 -93 292 -126 398 l-62 192 -71 0 -71 0 -21
-67z m152 -268 c26 -93 50 -176 53 -182 3 -10 -23 -13 -113 -13 -106 0 -116 2
-111 18 3 9 16 53 30 97 13 44 36 122 52 173 15 51 30 89 34 85 4 -4 28 -84
55 -178z"/>
<path d="M1560 510 l0 -400 65 0 64 0 3 138 3 137 116 5 c107 5 119 7 165 35
187 116 154 402 -55 473 -20 7 -99 12 -197 12 l-164 0 0 -400z m330 271 c50
-27 73 -62 77 -123 3 -41 -1 -60 -16 -86 -36 -56 -74 -72 -173 -72 l-88 0 0
150 0 150 83 0 c61 0 91 -5 117 -19z"/>
<path d="M2258 510 l2 -400 65 0 65 0 0 400 0 400 -67 0 -68 0 3 -400z"/>
<path d="M2775 898 c-13 -41 -171 -535 -190 -598 -13 -41 -30 -95 -39 -119
-25 -69 -24 -71 49 -71 49 0 65 3 65 14 0 8 9 44 20 80 l21 66 149 0 149 0 21
-66 c11 -36 20 -72 20 -80 0 -11 17 -14 69 -14 l69 0 -35 108 c-20 59 -77 238
-128 397 l-92 290 -71 3 c-52 2 -74 -1 -77 -10z m99 -200 c9 -35 32 -115 51
-178 19 -63 35 -121 35 -127 0 -10 -29 -13 -111 -13 -130 0 -122 -22 -64 170
21 69 42 144 48 168 6 23 14 42 17 42 4 0 15 -28 24 -62z"/>
<path d="M3270 510 l0 -400 65 0 65 0 0 140 0 141 112 -3 112 -3 71 -137 70
-138 67 0 68 0 -78 150 -77 149 25 18 c79 56 114 124 114 223 0 85 -19 133
-76 187 -68 66 -99 73 -330 73 l-208 0 0 -400z m410 272 c102 -51 108 -211 9
-264 -28 -15 -57 -18 -161 -18 l-128 0 0 150 0 150 123 0 c96 0 129 -4 157
-18z"/>
<path d="M3930 855 l0 -55 125 0 125 0 0 -345 0 -345 65 0 65 0 0 345 0 345
120 0 120 0 0 55 0 55 -310 0 -310 0 0 -55z"/>
<path d="M4670 510 l0 -400 65 0 65 0 0 400 0 400 -65 0 -65 0 0 -400z"/>
</g>
</svg>
